{"title":"Bellator 143 Prelims 720p WEB-DL x264 -={SPARROW}=-","uid":12496561,"size":2392109230,"categoryP":"video","categoryS":"hd___tv_shows","magnet":"?xt=urn:btih:9f111f3c792707a8a1b358e098711904b1b723a6&amp;dn=Bellator+143+Prelims+720p+WEB-DL+x264+-%3D%7BSPARROW%7D%3D-&amp;tr=udp%3A%2F%2Ftracker.leechers-paradise.org%3A6969&amp;tr=udp%3A%2F%2Fzer0day.ch%3A1337&amp;tr=udp%3A%2F%2Fopen.demonii.com%3A1337&amp;tr=udp%3A%2F%2Ftracker.coppersurfer.tk%3A6969&amp;tr=udp%3A%2F%2Fexodus.desync.com%3A6969","seeders":1,"leechers":0,"uploader":"CenaCme","files":2,"time":1443277309,"description":"Gleristone Santos vs John Teixeira\r\nDan Charles vs Chase Gormley\r\nShawn Bunch vs Darrion Caldwell\r\nEduardo Bustillos vs Steve Garcia\r\nAmador Ramirez vs Saul Elizondo\r\nAbdul Razak vs Bryce Shepard-Mejia\r\n\r\nGeneral\r\nComplete name             : Bellator.143.Prelims.720p.WEB-DL.x264.mp4\r\nFormat                    : MPEG-4\r\nFormat profile            : Base Media\r\nCodec ID                  : isom\r\nFile size                 : 2.23 GiB\r\nDuration                  : 1h 31mn\r\nOverall bit rate mode     : Constant\r\nOverall bit rate          : 3 482 Kbps\r\nWriting application       : Lavf56.34.100\r\n\r\nVideo\r\nID                        : 1\r\nFormat                    : AVC\r\nFormat/Info               : Advanced Video Codec\r\nFormat profile            :   \r\nFormat settings, CABAC    : Yes\r\nFormat settings, ReFrames : 4 frames\r\nFormat settings, GOP      : M=4, N=90\r\nCodec ID                  : avc1\r\nCodec ID/Info             : Advanced Video Coding\r\nDuration                  : 1h 31mn\r\nBit rate mode             : Constant\r\nBit rate                  : 3 404 Kbps\r\nWidth                     : 1 280 pixels\r\nHeight                    : 720 pixels\r\nDisplay aspect ratio      : 16:9\r\nFrame rate mode           : Variable\r\nFrame rate                : 29.970 fps\r\nMinimum frame rate        : 29.412 fps\r\nMaximum frame rate        : 30.303 fps\r\nStandard                  : NTSC\r\nColor space               : YUV\r\nChroma subsampling        : 4:2:0\r\nBit depth                 : 8 bits\r\nScan type                 : Progressive\r\nBits/(Pixel*Frame)        : 0.123\r\nStream size               : 2.16 GiB (97%)\r\nColor primaries           : BT.709\r\nTransfer characteristics  : BT.709\r\nMatrix coefficients       : BT.709\r\n\r\nAudio\r\nID                        : 2\r\nFormat                    : AAC\r\nFormat/Info               : Advanced Audio Codec\r\nFormat profile            : HE-AAC / LC\r\nCodec ID                  : 40\r\nDuration                  : 1h 31mn\r\nBit rate mode             : Constant\r\nBit rate                  : 96.0 Kbps\r\nChannel(s)                : 2 channels\r\nChannel positions         : Front: L R\r\nSampling rate             : 48.0 KHz / 24.0 KHz\r\nCompression mode          : Lossy\r\nStream size               : 62.1 MiB (3%)\r\n\r\n\r\nScreens:\r\n \nhttp://imgsparrow.co/image/8oL","torrent":{"xt":"urn:btih:9f111f3c792707a8a1b358e098711904b1b723a6","amp;dn":"Bellator+143+Prelims+720p+WEB-DL+x264+-%3D%7BSPARROW%7D%3D-","amp;tr":["udp%3A%2F%2Ftracker.leechers-paradise.org%3A6969","udp%3A%2F%2Fzer0day.ch%3A1337","udp%3A%2F%2Fopen.demonii.com%3A1337","udp%3A%2F%2Ftracker.coppersurfer.tk%3A6969","udp%3A%2F%2Fexodus.desync.com%3A6969"],"infoHash":"9f111f3c792707a8a1b358e098711904b1b723a6","infoHashBuffer":{"type":"Buffer","data":[159,17,31,60,121,39,7,168,161,179,88,224,152,113,25,4,177,183,35,166]},"announce":[],"urlList":[]}}